<?xml version="1.0" standalone="no"?>
<!DOCTYPE svg PUBLIC "-//W3C//DTD SVG 20010904//EN"
 "http://www.w3.org/TR/2001/REC-SVG-20010904/DTD/svg10.dtd">
<svg version="1.0" xmlns="http://www.w3.org/2000/svg"
 width="500.000000pt" height="500.000000pt" viewBox="0 0 500.000000 500.000000"
 preserveAspectRatio="xMidYMid meet">
<metadata>
Created by potrace 1.11, written by Peter Selinger 2001-2013
</metadata>
<g transform="translate(0.000000,500.000000) scale(0.100000,-0.100000)"
fill="#000000" stroke="none">
<path d="M990 3040 l0 -430 80 0 80 0 0 93 c1 82 3 95 25 122 13 16 26 27 28
25 3 -3 39 -58 81 -122 l76 -118 85 0 c47 0 85 2 85 6 0 3 -50 77 -111 166
-62 88 -112 166 -113 173 0 7 47 67 107 133 59 67 107 123 107 127 0 3 -39 5
-87 4 l-88 0 -97 -115 -98 -115 0 240 0 241 -80 0 -80 0 0 -430z"/>
<path d="M2710 3325 l0 -144 -49 24 c-61 31 -156 34 -216 6 -47 -21 -99 -76
-120 -128 -58 -137 -29 -361 57 -440 72 -67 209 -71 302 -8 l36 24 0 -24 c0
-24 2 -25 75 -25 l75 0 0 430 0 430 -80 0 -80 0 0 -145z m-52 -250 l53 -24 -3
-138 -3 -138 -45 -22 c-24 -13 -63 -23 -85 -23 -80 0 -115 52 -115 174 0 82
10 119 43 155 44 47 81 51 155 16z"/>
<path d="M3232 3228 c-118 -13 -196 -85 -223 -203 -17 -76 -8 -229 18 -285 43
-96 119 -141 250 -148 47 -3 103 1 130 7 55 14 117 52 133 80 9 17 3 25 -47
61 l-57 40 -23 -22 c-32 -30 -144 -38 -192 -13 -33 16 -61 65 -61 105 0 19 6
20 200 20 l200 0 0 63 c0 217 -114 320 -328 295z m107 -129 c34 -12 61 -53 61
-94 l0 -25 -121 0 c-134 0 -125 -5 -99 65 21 55 89 78 159 54z"/>
<path d="M3956 3216 c-21 -8 -56 -28 -77 -46 l-39 -31 0 41 0 41 -77 -3 -78
-3 -3 -302 -2 -303 80 0 80 0 1 198 0 197 30 24 c44 34 106 53 150 46 l37 -6
13 70 c7 39 10 74 6 77 -13 13 -85 13 -121 0z"/>
<path d="M1622 2968 c3 -242 4 -255 26 -296 52 -97 209 -110 318 -27 41 32 44
31 44 -5 l0 -30 80 0 80 0 -2 303 -3 302 -77 3 -78 3 0 -204 c0 -198 -1 -204
-22 -224 -44 -40 -93 -63 -134 -63 -67 0 -68 4 -74 259 l-5 226 -78 3 -78 3 3
-253z"/>
<path d="M990 2261 l0 -261 39 0 c22 0 41 5 43 11 3 8 14 7 35 -5 42 -21 117
-21 154 1 45 27 71 90 71 173 0 135 -41 190 -141 190 -35 0 -65 -6 -78 -15
l-22 -16 -3 88 -3 88 -47 3 -48 3 0 -260z m219 10 c42 -42 33 -156 -14 -187
-17 -11 -34 -14 -52 -9 -48 12 -53 22 -53 106 0 75 1 79 28 93 37 21 68 20 91
-3z"/>
<path d="M1410 2261 l0 -261 50 0 50 0 -2 258 -3 257 -47 3 -48 3 0 -260z"/>
<path d="M1660 2352 c-53 -29 -75 -81 -75 -177 0 -66 4 -86 23 -116 30 -49 75
-69 154 -69 115 0 168 59 168 190 0 84 -24 141 -73 170 -43 27 -148 27 -197 2z
m150 -82 c29 -29 29 -147 0 -178 -26 -27 -70 -28 -101 -3 -21 17 -24 28 -24
91 0 63 3 74 24 91 30 25 76 24 101 -1z"/>
<path d="M2064 2351 c-87 -53 -99 -238 -19 -318 29 -29 40 -33 84 -33 29 0 65
7 81 15 28 14 30 14 30 -3 0 -9 -7 -28 -16 -41 -15 -21 -22 -23 -88 -18 -39 3
-81 8 -92 12 -17 5 -23 2 -28 -18 -3 -14 -8 -32 -11 -40 -16 -40 196 -60 262
-24 58 31 63 53 63 277 l0 200 -34 0 c-19 0 -38 -4 -41 -10 -4 -6 -17 -4 -35
5 -41 21 -118 19 -156 -4z m146 -76 c29 -15 30 -18 30 -89 l0 -74 -37 -17
c-65 -31 -113 6 -113 88 0 41 22 92 42 100 24 10 49 7 78 -8z"/>
</g>
</svg>
